<svg width="24" height="24" viewBox="0 0 24 24" fill="none" xmlns="http://www.w3.org/2000/svg">
<path d="M11 6V14H18V12H13V6H11ZM21.854 13.683L23.852 13.842C23.72 14.696 23.501 15.518 23.2 16.302L21.4 15.397C21.6 14.846 21.753 14.274 21.854 13.683ZM19.306 21.509L17.893 20.066C17.407 20.422 16.887 20.734 16.338 20.999L17.007 22.898C17.828 22.521 18.598 22.054 19.306 21.509ZM20.532 17.2C20.197 17.746 19.813 18.257 19.383 18.728L20.787 20.161C21.37 19.534 21.886 18.845 22.326 18.103L20.532 17.2ZM0 12C0 18.627 5.375 24 12.004 24C13.085 24 14.128 23.844 15.124 23.576L14.459 21.682C13.672 21.882 12.852 22 12.004 22C6.488 22 2.001 17.514 2.001 12C2.001 6.486 6.488 2 12.004 2C14.239 2 16.297 2.744 17.963 3.989L15.913 6.038L22.928 7.392L21.573 0.379L19.389 2.562C17.353 0.964 14.794 0 12.004 0C5.375 0 0 5.373 0 12H0ZM23.773 9.641H21.697C21.86 10.302 21.958 10.985 21.985 11.688L24 11.849C23.99 11.094 23.915 10.355 23.773 9.641Z" fill="#AD2117"/>
</svg>
