<svg width="24" height="24" viewBox="0 0 24 24" fill="none" xmlns="http://www.w3.org/2000/svg">
<circle cx="12" cy="12" r="11" fill="white" stroke="#AD2117" stroke-width="2"/>
<path d="M8.63125 11.8047H9.17422C9.51536 11.7995 9.78359 11.7096 9.97891 11.5352C10.1742 11.3607 10.2719 11.125 10.2719 10.8281C10.2719 10.1615 9.93984 9.82812 9.27578 9.82812C8.96328 9.82812 8.71328 9.91797 8.52578 10.0977C8.34089 10.2747 8.24844 10.5104 8.24844 10.8047H7.52578C7.52578 10.3542 7.68984 9.98047 8.01797 9.68359C8.3487 9.38411 8.76797 9.23438 9.27578 9.23438C9.81224 9.23438 10.2328 9.3763 10.5375 9.66016C10.8422 9.94401 10.9945 10.3385 10.9945 10.8438C10.9945 11.0911 10.9138 11.3307 10.7523 11.5625C10.5935 11.7943 10.376 11.9674 10.1 12.082C10.4125 12.181 10.6534 12.3451 10.8227 12.5742C10.9945 12.8034 11.0805 13.0833 11.0805 13.4141C11.0805 13.9245 10.9138 14.3294 10.5805 14.6289C10.2471 14.9284 9.81354 15.0781 9.27969 15.0781C8.74583 15.0781 8.31094 14.9336 7.975 14.6445C7.64167 14.3555 7.475 13.974 7.475 13.5H8.20156C8.20156 13.7995 8.29922 14.0391 8.49453 14.2188C8.68984 14.3984 8.95156 14.4883 9.27969 14.4883C9.62865 14.4883 9.89557 14.3971 10.0805 14.2148C10.2654 14.0326 10.3578 13.7708 10.3578 13.4297C10.3578 13.099 10.2562 12.8451 10.0531 12.668C9.85 12.4909 9.55703 12.3997 9.17422 12.3945H8.63125V11.8047ZM15.2477 15H14.5211V10.1836L13.0641 10.7188V10.0625L15.1344 9.28516H15.2477V15Z" fill="#AD2117"/>
</svg>
