<svg width="24" height="24" viewBox="0 0 24 24" fill="none" xmlns="http://www.w3.org/2000/svg">
<path d="M12 2C17.514 2 22 6.486 22 12C22 17.514 17.514 22 12 22C6.486 22 2 17.514 2 12C2 6.486 6.486 2 12 2ZM12 0C5.373 0 0 5.373 0 12C0 18.627 5.373 24 12 24C18.627 24 24 18.627 24 12C24 5.373 18.627 0 12 0ZM16 14.083C16 11.938 13.768 11.341 12.057 10.537C11.018 9.997 11.149 8.708 12.638 8.621C13.464 8.571 14.313 8.816 15.081 9.086L15.443 7.439C14.536 7.163 13.724 7.037 13 7.018V6H12V7.067C10.055 7.334 9.016 8.554 9.016 9.917C9.016 12.355 11.863 12.727 12.794 13.16C14.064 13.728 13.829 14.91 12.68 15.171C11.683 15.397 10.411 15.003 9.455 14.631L9 16.275C9.894 16.737 10.965 16.983 12 17.002V18H13V16.947C14.657 16.715 16.002 15.801 16 14.083Z" fill="#AD2117"/>
</svg>
