<svg width="16" height="16" viewBox="0 0 16 16" fill="none" xmlns="http://www.w3.org/2000/svg">
<path d="M15.0342 7.79199C15.0342 3.6956 11.676 0.374267 7.53418 0.374267C3.39236 0.374267 0.0341795 3.6956 0.0341794 7.79199C0.0341792 11.4941 2.77641 14.563 6.3624 15.12L6.3624 9.93667L4.45761 9.93667L4.45761 7.79199L6.3624 7.79199L6.3624 6.1574C6.3624 4.29853 7.4825 3.27105 9.19534 3.27105C10.0159 3.27105 10.8744 3.41604 10.8744 3.41604L10.8744 5.24153L9.92836 5.24153C8.99705 5.24153 8.70596 5.81316 8.70596 6.40045L8.70596 7.79199L10.7858 7.79199L10.4536 9.93667L8.70596 9.93667L8.70595 15.12C12.2919 14.564 15.0342 11.4951 15.0342 7.79199Z" fill="#FAFAFA"/>
</svg>
