<svg width="16" height="16" viewBox="0 0 16 16" fill="none" xmlns="http://www.w3.org/2000/svg">
<path d="M15.0346 8.52125C15.0346 8.01144 14.9924 7.49886 14.9024 6.99731L7.68555 6.99731L7.68555 9.88536L11.8183 9.88536C11.6468 10.8168 11.0958 11.6408 10.2889 12.1644L10.2889 14.0383L12.7545 14.0383C14.2024 12.7321 15.0346 10.803 15.0346 8.52125Z" fill="#FAFAFA"/>
<path d="M7.68694 15.8486C9.75051 15.8486 11.4908 15.1844 12.7587 14.038L10.2931 12.1641C9.60713 12.6216 8.72154 12.8806 7.68975 12.8806C5.69366 12.8806 4.00119 11.5606 3.39393 9.78589L0.849609 9.78589L0.849609 11.7177C2.14848 14.2502 4.79401 15.8486 7.68694 15.8486Z" fill="#FAFAFA"/>
<path d="M3.38959 9.78573C3.06909 8.85428 3.06909 7.84567 3.38959 6.91422L3.38959 4.98242L0.848081 4.98242C-0.237121 7.10161 -0.237121 9.59834 0.848081 11.7175L3.38959 9.78573Z" fill="#FAFAFA"/>
<path d="M7.68645 3.81686C8.77728 3.80032 9.83155 4.20267 10.6216 4.94121L12.806 2.79998C11.4228 1.52681 9.58696 0.826847 7.68645 0.848894C4.79352 0.848894 2.14799 2.44724 0.849121 4.98255L3.39063 6.91434C3.99508 5.13687 5.69036 3.81686 7.68645 3.81686Z" fill="#FAFAFA"/>
</svg>
