<svg width="25" height="27" viewBox="0 0 46 50" fill="none" xmlns="http://www.w3.org/2000/svg">
<g filter="url(#filter0_d)">
<g filter="url(#filter1_d)">
<circle cx="22.5479" cy="20.5479" r="20.5479" fill="#AD2117"/>
</g>
</g>
<path fill-rule="evenodd" clip-rule="evenodd" d="M29.3537 30.5376C34.492 27.8001 37.091 21.6955 35.2385 15.9615C33.158 9.52213 26.2514 5.98852 19.812 8.06895C18.1467 8.607 16.6757 9.46785 15.4459 10.5599C10.3076 13.2974 7.70855 19.402 9.56111 25.136C11.6415 31.5754 18.5482 35.109 24.9875 33.0285C26.6529 32.4905 28.1239 31.6296 29.3537 30.5376ZM27.3459 31.3879C28.0512 31.16 28.7217 30.8743 29.3537 30.5376C32.8791 27.4069 34.4225 22.3761 32.8801 17.6021C30.7996 11.1628 23.893 7.62915 17.4536 9.70958C16.7483 9.93745 16.0779 10.2232 15.4459 10.5599C11.9204 13.6906 10.3771 18.7214 11.9195 23.4954C13.9999 29.9347 20.9066 33.4683 27.3459 31.3879Z" fill="white"/>
<rect x="24.6504" y="17.6807" width="18.3498" height="5.73431" fill="#AD2117"/>
<path d="M22.5483 50L29.6663 37.1575H15.4303L22.5483 50Z" fill="#AD2117"/>
<defs>
<filter id="filter0_d" x="1" y="0" width="43.0959" height="43.0959" filterUnits="userSpaceOnUse" color-interpolation-filters="sRGB">
<feFlood flood-opacity="0" result="BackgroundImageFix"/>
<feColorMatrix in="SourceAlpha" type="matrix" values="0 0 0 0 0 0 0 0 0 0 0 0 0 0 0 0 0 0 127 0"/>
<feOffset dy="1"/>
<feGaussianBlur stdDeviation="0.5"/>
<feColorMatrix type="matrix" values="0 0 0 0 0 0 0 0 0 0 0 0 0 0 0 0 0 0 0.1 0"/>
<feBlend mode="normal" in2="BackgroundImageFix" result="effect1_dropShadow"/>
<feBlend mode="normal" in="SourceGraphic" in2="effect1_dropShadow" result="shape"/>
</filter>
<filter id="filter1_d" x="0" y="0" width="45.0959" height="45.0959" filterUnits="userSpaceOnUse" color-interpolation-filters="sRGB">
<feFlood flood-opacity="0" result="BackgroundImageFix"/>
<feColorMatrix in="SourceAlpha" type="matrix" values="0 0 0 0 0 0 0 0 0 0 0 0 0 0 0 0 0 0 127 0"/>
<feOffset dy="2"/>
<feGaussianBlur stdDeviation="1"/>
<feColorMatrix type="matrix" values="0 0 0 0 0 0 0 0 0 0 0 0 0 0 0 0 0 0 0.08 0"/>
<feBlend mode="normal" in2="BackgroundImageFix" result="effect1_dropShadow"/>
<feBlend mode="normal" in="SourceGraphic" in2="effect1_dropShadow" result="shape"/>
</filter>
</defs>
</svg>
