<svg width="192" height="165" viewBox="0 0 192 165" fill="none" xmlns="http://www.w3.org/2000/svg"   preserveAspectRatio="none">
<path fill-rule="evenodd" clip-rule="evenodd" d="M120.066 14.0404C91.745 -6.31605 51.2344 -4.6415 24.1542 19.7455C-6.2596 47.1345 -8.2157 92.8004 19.7851 121.743C27.0306 129.232 35.572 134.868 44.7804 138.633C73.1014 158.99 113.612 157.315 140.692 132.928C171.106 105.539 173.062 59.8732 145.061 30.9306C137.816 23.4414 129.274 17.8057 120.066 14.0404ZM129.923 22.5585C126.854 19.3861 123.552 16.5463 120.066 14.0404C93.6879 3.25437 61.8362 7.81572 39.2923 28.1176C8.8785 55.5066 6.92239 101.172 34.9232 130.115C37.9924 133.287 41.294 136.127 44.7804 138.633C71.1585 149.419 103.01 144.858 125.554 124.556C155.968 97.167 157.924 51.5012 129.923 22.5585ZM109.211 135.812H137.296C138.449 134.889 139.582 133.928 140.692 132.928C145.171 128.894 149.033 124.465 152.273 119.75L142.332 102.532C138.342 110.586 132.743 118.082 125.554 124.556C120.516 129.093 115.014 132.843 109.211 135.812Z" fill="#AD2117"/>
<path d="M116.425 109.082C116.007 109.681 115.546 110.134 115.042 110.442C114.541 110.747 114.025 110.913 113.495 110.94L113.976 112.521L112.615 112.677L112.016 110.627C111.842 110.545 111.672 110.445 111.504 110.328C110.973 109.957 110.588 109.498 110.35 108.951C110.112 108.405 110.043 107.815 110.145 107.183C110.248 106.547 110.514 105.92 110.942 105.302L111.163 104.985C111.604 104.354 112.105 103.878 112.665 103.558C113.231 103.236 113.809 103.093 114.402 103.127C114.999 103.16 115.565 103.363 116.099 103.736C116.633 104.11 117.017 104.57 117.25 105.118C117.488 105.664 117.552 106.257 117.442 106.896C117.336 107.535 117.064 108.168 116.625 108.796L116.425 109.082ZM115.29 107.856C115.76 107.184 115.996 106.589 116 106.072C116.003 105.554 115.782 105.14 115.336 104.828C114.893 104.518 114.43 104.452 113.947 104.63C113.466 104.806 112.992 105.225 112.523 105.889L112.304 106.202C111.847 106.856 111.612 107.448 111.601 107.978C111.589 108.507 111.809 108.929 112.261 109.245C112.704 109.555 113.166 109.62 113.646 109.44C114.127 109.257 114.603 108.833 115.071 108.169L115.29 107.856ZM125.488 110.43L122.537 114.652C122.047 115.353 121.439 115.754 120.714 115.855C119.991 115.957 119.25 115.742 118.49 115.211C117.741 114.688 117.286 114.074 117.122 113.37C116.959 112.666 117.115 111.965 117.59 111.266L120.575 106.996L121.896 107.919L118.939 112.15C118.645 112.57 118.531 112.946 118.595 113.279C118.664 113.612 118.876 113.902 119.231 114.15C119.974 114.669 120.624 114.542 121.181 113.77L124.163 109.504L125.488 110.43ZM124.397 119.209L123.076 118.286L127.556 111.876L128.877 112.799L124.397 119.209ZM133.051 122.08C132.519 122.734 131.884 123.099 131.146 123.173C130.411 123.249 129.668 123.025 128.917 122.499C128.095 121.925 127.641 121.197 127.554 120.315C127.472 119.432 127.769 118.508 128.444 117.542L128.717 117.15C129.148 116.534 129.636 116.067 130.182 115.749C130.727 115.431 131.288 115.288 131.865 115.32C132.446 115.351 133.004 115.553 133.538 115.926C134.278 116.443 134.735 117.058 134.91 117.77C135.085 118.482 134.957 119.22 134.527 119.986L133.207 119.063C133.463 118.626 133.557 118.246 133.486 117.922C133.421 117.596 133.186 117.292 132.781 117.009C132.341 116.701 131.9 116.629 131.458 116.792C131.021 116.954 130.568 117.365 130.099 118.024L129.76 118.508C129.276 119.201 129.027 119.78 129.011 120.246C128.999 120.713 129.219 121.105 129.671 121.421C130.079 121.706 130.447 121.826 130.776 121.781C131.11 121.734 131.428 121.526 131.73 121.156L133.051 122.08ZM137.131 124.283L135.928 124.543L134.648 126.374L133.327 125.451L137.807 119.041L139.128 119.965L137.097 122.87L138.235 122.479L141.342 121.512L142.967 122.648L138.7 123.905L138.552 129.104L136.981 128.005L137.131 124.283ZM149.383 133.922L153.434 129.964L154.75 130.884L148.848 136.3L147.518 135.371L149.472 130.353L145.431 133.912L144.102 132.983L147.16 125.579L148.477 126.499L146.162 131.657L150.4 127.844L151.519 128.625L149.383 133.922ZM157.687 138.343L155.151 136.571L153.951 138.288L156.927 140.368L156.185 141.429L151.889 138.426L156.369 132.016L160.657 135.013L159.909 136.083L156.942 134.009L155.874 135.536L158.41 137.309L157.687 138.343ZM163.66 142.518L161.124 140.746L159.924 142.463L162.9 144.543L162.158 145.604L157.862 142.601L162.342 136.191L166.63 139.188L165.882 140.258L162.915 138.184L161.847 139.711L164.383 141.484L163.66 142.518ZM167.639 145.608L166.435 145.867L165.155 147.699L163.835 146.776L168.315 140.366L169.636 141.289L167.605 144.195L168.743 143.804L171.85 142.837L173.474 143.972L169.208 145.23L169.06 150.428L167.489 149.33L167.639 145.608Z" fill="#27282B"/>
</svg>
