<svg width="59" height="55" viewBox="0 0 59 55" fill="none" xmlns="http://www.w3.org/2000/svg"  preserveAspectRatio="none">
<path fill-rule="evenodd" clip-rule="evenodd" d="M42.6355 4.986C32.5787 -2.24282 18.1933 -1.6483 8.57708 7.01155C-2.22276 16.7373 -2.91737 32.9531 7.02563 43.2305C9.59836 45.8898 12.6312 47.8909 15.9009 49.228C25.9576 56.4568 40.343 55.8623 49.9593 47.2024C60.7591 37.4767 61.4537 21.2609 51.5107 10.9834C48.938 8.32418 45.9052 6.32306 42.6355 4.986ZM46.1353 8.01045C45.0456 6.88407 43.8733 5.87577 42.6355 4.986C33.2686 1.15565 21.9579 2.77529 13.9525 9.98453C3.15263 19.7103 2.45802 35.9261 12.401 46.2035C13.4907 47.3299 14.663 48.3382 15.9009 49.228C25.2678 53.0583 36.5785 51.4387 44.5839 44.2294C55.3837 34.5037 56.0783 18.2879 46.1353 8.01045ZM38.7808 48.2267H48.7536C49.1632 47.8988 49.5653 47.5574 49.9595 47.2025C51.55 45.7701 52.9213 44.1971 54.0718 42.5229L50.5418 36.4088C49.1252 39.2689 47.137 41.9305 44.5841 44.2295C42.7952 45.8405 40.8412 47.1723 38.7808 48.2267Z" fill="white"/>
</svg>
